<svg id="Capa_1" data-name="Capa 1" xmlns="http://www.w3.org/2000/svg" viewBox="0 0 1700.73 557.52"><defs><style>.cls-1,.cls-3{fill:#026842;}.cls-2{fill:none;stroke:#026842;stroke-miterlimit:10;stroke-width:8px;}.cls-3{font-size:56.91px;font-family:CenturyGothic, Century Gothic;letter-spacing:0.69em;}</style></defs><path class="cls-1" d="M304.76,565.55a8.14,8.14,0,0,1-2.34-2.91c-1-1.66-2.07-3.38-3.21-5.18a28.59,28.59,0,0,1-2.77-5.6,14.05,14.05,0,0,1-1.07-4.56,21.41,21.41,0,0,1,2.77-9.55,110.07,110.07,0,0,1,5.77-10q5.13-8.71,15.16-25.1t28-45.41q9.81-15.77,18.79-31.94a248.34,248.34,0,0,0,12.81-25.72,19.12,19.12,0,0,0,1.71-7.05q0-4.56-2.78-6.64a12.21,12.21,0,0,0-7.47-2.07q-5.13,0-11.53.2c-4.27.15-8,.35-11.11.63a3.16,3.16,0,0,1-2.77-1.87,7.71,7.71,0,0,1-1.07-3.94c0-1.1.43-1.66,1.28-1.66a59.33,59.33,0,0,0,10.47,1.87q6.18.61,12.17.62a108.37,108.37,0,0,0,16.23-1.24A86.89,86.89,0,0,0,397,375.57c2,0,3.13,1.25,3.41,3.73q.85,3.33,2.35,9.75t2.78,11q3.4,12.45,9,28t11.74,32.15q6.19,16.59,12.39,32.77t10.89,29.45a40.52,40.52,0,0,0,1.71,5.39,3,3,0,0,0,3,2.07c.85,0,1.77-.75,2.77-2.28a49.57,49.57,0,0,0,2.78-4.77q9.82-19.49,20.29-39.82t21.14-40.23q10.66-19.92,21.57-38.58t21.57-34.84a90.75,90.75,0,0,1,6.19-8.71,56.31,56.31,0,0,1,8.11-8.3,49.84,49.84,0,0,1,9.4-6.22,22.8,22.8,0,0,1,10.46-2.49c2,0,4.49.9,7.48,2.7s4.91,3.8,5.76,6c0,.56-.42.83-1.28.83a43.35,43.35,0,0,0-10.25,1.25A42,42,0,0,0,569.35,359a58.71,58.71,0,0,0-12,9.54,159.16,159.16,0,0,0-13.45,15.76,538,538,0,0,0-40.15,63.05q-19.65,35.69-36.3,71.76-4.71,10.78-9.61,22t-9.61,20.33c-.86,1.93-1.71,2.9-2.56,2.9-1.14,0-2.43-1-3.85-2.9q-5.12-17.43-12.17-38.16t-14.52-41.07q-7.49-20.31-14.31-38.16t-11.53-28.62q-2.56-5.38-4.7-5.39t-5.55,5q-10.68,16.17-19.86,30.28t-16.87,27.58q-7.69,13.49-14.52,26.34T315,525.31a68.56,68.56,0,0,0-3.2,8.71q-1.5,5-2.78,10.58t-2.13,11.2a65.6,65.6,0,0,0-.85,9.75Z" transform="translate(-140.21 -273.48)"/><path class="cls-1" d="M645.5,488.81A85.85,85.85,0,0,1,627.78,506a39.06,39.06,0,0,1-23.7,7.68,31.67,31.67,0,0,1-14.31-3.53,27.22,27.22,0,0,1-11.32-10.58q-3,6.65-7.69,15.14a143.33,143.33,0,0,1-11.1,17,107.79,107.79,0,0,1-14.31,15.56,79.3,79.3,0,0,1-16.87,11.61q-7.69,3.32-12.81,3.32-15.37,0-15.38-13.28a45.8,45.8,0,0,1,2.78-15.34,92.43,92.43,0,0,1,7-15.35,141.88,141.88,0,0,1,9.19-14.1,101.93,101.93,0,0,1,29.68-27,60.51,60.51,0,0,1,24.77-7.89,67.29,67.29,0,0,1,2.56-7.67,7.74,7.74,0,0,1,6-5.18l4.27-.83a15.4,15.4,0,0,0,3.85-1.25,2.45,2.45,0,0,1,2.56-.2c.86.41,1,1.17.43,2.28a33.84,33.84,0,0,0-4.49,11.61,73.89,73.89,0,0,0-1.49,15.35q0,11.61,4.48,19.08T607.49,510a31.64,31.64,0,0,0,20.08-7,76.83,76.83,0,0,0,14.94-15.34c.57-1.39,1.5-1.8,2.78-1.25S646.64,487.71,645.5,488.81ZM575,491.71a63.18,63.18,0,0,1-1.28-8.71c-.29-3.32-.43-6.49-.43-9.54,0-1.38-.57-2.07-1.7-2.07a19,19,0,0,0-9.83,3.11,54.06,54.06,0,0,0-10.25,8.3,131.26,131.26,0,0,0-10.25,11.82,147.48,147.48,0,0,0-9.39,13.68,151.55,151.55,0,0,0-10,19.71,46.09,46.09,0,0,0-4.06,20.12,13.58,13.58,0,0,0,1.07,5.39q1.07,2.49,4.91,2.49,7.26,0,15.8-7.88a124.2,124.2,0,0,0,16.23-18.46,147.41,147.41,0,0,0,13-21.37Q574.18,497.53,575,491.71Z" transform="translate(-140.21 -273.48)"/><path class="cls-1" d="M692.83,476.37q-.44,7.88-6.41,17.21a139.69,139.69,0,0,1-14.52,18.67,214.2,214.2,0,0,1-19,18.25,240.82,240.82,0,0,1-20.5,15.76,173.5,173.5,0,0,1-18.58,11.2q-8.55,4.35-13.24,4.35l-6.83-6.63c0-1.11.57-1.52,1.71-1.25a25.08,25.08,0,0,0,16.23-7.26q6.41-6.42,9.82-25.51c.57-3,1.13-6.43,1.71-10.16s1.13-7.32,1.71-10.78,1.21-6.57,1.92-9.34a30.82,30.82,0,0,1,1.92-5.8c1.14-3.32,1.5-5.32,1.07-6s-1.78-1-4.06-1l-12.38,2.08c-2.57-1.1-2.43-2.08.42-2.9l20.08-2.91a127.54,127.54,0,0,0,18.36-3.73c.86.56,1,1.11.43,1.66q-1.71,1.25-3.84,2.9a11.49,11.49,0,0,0-3.42,4.56,54.8,54.8,0,0,0-3.63,11.2q-1.5,6.64-2.78,12.86t-2.35,11.41a45.52,45.52,0,0,1-1.92,7.26,42.15,42.15,0,0,1-8.54,13.69,89.47,89.47,0,0,1-12,11.2q-1.71,2.9.43,1.65a117.83,117.83,0,0,0,23.7-11,99.25,99.25,0,0,0,20.29-16.17,84,84,0,0,0,14.73-20.95,71.12,71.12,0,0,0,7.05-25.3q1.27-16.19-5.13-21.16c-.57-.27-.71-.55-.42-.83s1.28-.27,3,0a16,16,0,0,1,12,7.05Q694.1,466.83,692.83,476.37Z" transform="translate(-140.21 -273.48)"/><path class="cls-1" d="M797.38,510A199.21,199.21,0,0,1,780.08,528a161.7,161.7,0,0,1-21.78,17A126.13,126.13,0,0,1,734,557.46a70.41,70.41,0,0,1-25,4.77q-20.09,0-20.07-17.42,0-11.61,6.19-25.1a105.08,105.08,0,0,1,16-24.89,102.35,102.35,0,0,1,21.56-19.08q11.75-7.67,22.43-7.67c4,0,6.76.69,8.32,2.07a6.87,6.87,0,0,1,2.35,5.4,22.5,22.5,0,0,1-3.2,10.78,37.75,37.75,0,0,1-9.61,11A55,55,0,0,1,736.73,506q-9.83,3.54-23.49,3.53a64.83,64.83,0,0,0-4.7,11.82A53.91,53.91,0,0,0,706,537.75q0,17,15.8,17a50.66,50.66,0,0,0,20.29-4.56,118,118,0,0,0,20.29-11.41,145.21,145.21,0,0,0,18.15-14.93,155.07,155.07,0,0,0,13.88-15.14,1.71,1.71,0,0,1,1.92-.42A1.62,1.62,0,0,1,797.38,510Zm-44.85-32.35q0-5.39-5.55-5.39a15.32,15.32,0,0,0-8.75,3.11,46.55,46.55,0,0,0-8.76,8.09,107.94,107.94,0,0,0-8.11,10.78A92.12,92.12,0,0,0,715,505.4a9.35,9.35,0,0,0,3,.62,33.41,33.41,0,0,0,3.42.21,31.48,31.48,0,0,0,21.78-8.5Q752.53,489.23,752.53,477.61Z" transform="translate(-140.21 -273.48)"/><path class="cls-1" d="M932.25,523.65q-6,6.65-14.3,14.93a212.55,212.55,0,0,1-17.73,15.77,109.7,109.7,0,0,1-19.43,12.44,43.62,43.62,0,0,1-19.43,5q-8.55,0-12-3.32T846,558.08q0-4.56,4.91-14.93t10.89-21.57q6-11.21,10.89-21.36t4.92-14.31c0-1.66-.72-2.49-2.14-2.49a82,82,0,0,0-12.6,8.5q-7.05,5.59-13.88,12.24T836.37,517a112.39,112.39,0,0,0-8.75,10.37,77.22,77.22,0,0,0-6,10l-5.77,11.2a65.07,65.07,0,0,1-5.55,9.12c-1.86,2.49-3.49,3.74-4.91,3.74a4.93,4.93,0,0,1-3.85-2.08,6.51,6.51,0,0,1-1.71-4.14,13.93,13.93,0,0,1,1.29-4.36,37.22,37.22,0,0,1,4.69-7.67,130.31,130.31,0,0,0,10-15.76q4.49-8.29,7.69-15.35t4.91-12a34.78,34.78,0,0,0,1.71-5.81c0-2.21-.58-3.32-1.71-3.32q-2.57,0-8.76,5.19a182.44,182.44,0,0,0-13.45,12.65Q799,516.19,792,524.48t-11.74,14.93q-6,8.72-10.25,15.35t-6.41,6.64q-3.42,0-4.06-2.91a27.19,27.19,0,0,1-.64-5.8,8.19,8.19,0,0,1,1.71-5.39q11.54-17.84,22.64-36.51t22.21-36.91c1.42-2.49,3-3.74,4.69-3.74a4.84,4.84,0,0,1,3.85,2.29,7.41,7.41,0,0,1,1.71,4.35,121.16,121.16,0,0,1-10.25,20.33q-7.27,12-12.82,22,17.08-19.08,28.62-28.83T840,480.51q4.69,0,4.7,6.23,0,4.14-3.84,12.65T834,513.28c-.57,1.11-.64,1.6-.21,1.45a4.08,4.08,0,0,0,1.49-1q5.13-5.81,11.75-12.24a171.94,171.94,0,0,1,14.09-12.24q7.47-5.81,15-10.78A99.74,99.74,0,0,1,890,470.56q6.4,0,6.41,5.81a7.7,7.7,0,0,1-.43,2.48,22.69,22.69,0,0,1-1.28,2.91q-2.14,4.56-7.9,14.93T875,518.88q-6,11.82-10.46,22.82t-4.48,16.79q0,8.29,8.11,8.3,7.69,0,16.23-5a128.77,128.77,0,0,0,17.08-12,175.58,175.58,0,0,0,15.81-14.72q7.25-7.66,12.38-13.48,1.71-2.49,3.42-2.08C934.24,519.78,934,521.16,932.25,523.65Z" transform="translate(-140.21 -273.48)"/><path class="cls-1" d="M1145.72,292.61a51.17,51.17,0,0,1-.43,8.3c-.29,1.39-.85,1.66-1.71.83a61.23,61.23,0,0,0-5.76-4.77c-2.43-1.8-6.62-2.7-12.6-2.7a110.81,110.81,0,0,0-14.1.83,58.52,58.52,0,0,0-13,3.32,85.48,85.48,0,0,0-13.89,6.85A131.57,131.57,0,0,0,1068,317.09q-12.83,10.37-27.77,30.48t-30.11,44q-15.17,23.86-28.83,48.53t-23.91,44.18c-2.29,4.42-4.77,9.61-7.48,15.55s-5.12,11.89-7.26,17.84-3.91,11.48-5.34,16.59-2.13,8.92-2.13,11.41q0,11.19,7.69,11.2,4.7,0,10.67-4.36A50.43,50.43,0,0,0,965.05,540a77.45,77.45,0,0,0,9.4-19.91,86.44,86.44,0,0,0,3.84-26.76,41.29,41.29,0,0,0-.64-8.09,29,29,0,0,0-1.49-5.18q0-2.49,2.56-5c1.14-1.1,2.56-2.42,4.27-3.94a29.16,29.16,0,0,1,4.7-3.52,1.75,1.75,0,0,1,1.71.82q0,8.31,3.2,13.9a28.46,28.46,0,0,0,8.12,9.13,34.35,34.35,0,0,0,10.68,5.18,39.25,39.25,0,0,0,10.89,1.66,61.65,61.65,0,0,0,15.8-2.28,68.65,68.65,0,0,0,17.51-7.67c1.42-.83,2.35-.76,2.77.2s-.07,1.73-1.49,2.28a142.85,142.85,0,0,1-25,10.37,75.18,75.18,0,0,1-21.15,3.32A30.82,30.82,0,0,1,996,501.05,29.68,29.68,0,0,1,986,493a73.93,73.93,0,0,1-5.34,28.62,80.34,80.34,0,0,1-13,21.78A61.75,61.75,0,0,1,951,557.25q-9,5-16.23,5a16,16,0,0,1-11.32-4.15q-4.49-4.14-4.48-12.86,0-6.63,3-16.18a162.37,162.37,0,0,1,7.47-19.28q4.49-9.75,9.18-18.67t7.69-14.31Q957.8,456.05,971,434.47t28-42.72q14.73-21.15,31.18-40.86A356.9,356.9,0,0,1,1065,314.6q5.13-4.56,13-10.79A188.35,188.35,0,0,1,1094.89,292a119.16,119.16,0,0,1,18.15-9.33,45.14,45.14,0,0,1,16.87-3.73q7.69,0,11.75,3.94A13.06,13.06,0,0,1,1145.72,292.61Z" transform="translate(-140.21 -273.48)"/><path class="cls-1" d="M1124.7,510A199,199,0,0,1,1107.41,528a162.43,162.43,0,0,1-21.79,17,126.05,126.05,0,0,1-24.34,12.45,70.42,70.42,0,0,1-25,4.77q-20.07,0-20.07-17.42,0-11.61,6.19-25.1a105.71,105.71,0,0,1,16-24.89A102.4,102.4,0,0,1,1060,475.74q11.74-7.67,22.42-7.67,6,0,8.33,2.07a6.91,6.91,0,0,1,2.35,5.4,22.53,22.53,0,0,1-3.21,10.78,37.71,37.71,0,0,1-9.6,11,55.21,55.21,0,0,1-16.23,8.71q-9.84,3.54-23.49,3.53a64.83,64.83,0,0,0-4.7,11.82,53.92,53.92,0,0,0-2.57,16.38q0,17,15.81,17a50.65,50.65,0,0,0,20.28-4.56,117.23,117.23,0,0,0,20.29-11.41,144.49,144.49,0,0,0,18.15-14.93,155.07,155.07,0,0,0,13.88-15.14,1.72,1.72,0,0,1,1.93-.42A1.62,1.62,0,0,1,1124.7,510Zm-44.84-32.35c0-3.59-1.86-5.39-5.55-5.39a15.35,15.35,0,0,0-8.76,3.11,46.86,46.86,0,0,0-8.76,8.09,109.49,109.49,0,0,0-8.11,10.78,93.47,93.47,0,0,0-6.41,11.2,9.42,9.42,0,0,0,3,.62,33.57,33.57,0,0,0,3.42.21,31.45,31.45,0,0,0,21.78-8.5Q1079.85,489.23,1079.86,477.61Z" transform="translate(-140.21 -273.48)"/><path class="cls-1" d="M1193,474.71a66.74,66.74,0,0,0-5.34,7.05A41.2,41.2,0,0,0,1184,488a1.65,1.65,0,0,1-1.7,1.24c-.29,0-.72-.41-1.29-1.24a18.82,18.82,0,0,0-2.35-2.7,15.72,15.72,0,0,0-4.05-2.69,17,17,0,0,0-7.26-1.25q-5.57,0-12.39,3.74a64.23,64.23,0,0,0-12,8.29,93.41,93.41,0,0,0-14.31,14.52q-6.2,7.89-11.74,16.38t-10.68,17.43q-5.12,8.92-11.1,18c-.29.83-1.14,1.24-2.56,1.24q-.87,0-3.63-2.49c-1.86-1.65-2.78-2.9-2.78-3.73,0-1.66,1-4.15,3-7.46q6.82-11.61,13.88-23.44t13.24-22.19q6.18-10.37,10.89-18a123.38,123.38,0,0,0,6.41-11.41c1.42-2.49,2.41-3.74,3-3.74s2,.7,4.27,2.08a6.49,6.49,0,0,1,3.41,5.81,11,11,0,0,1-1.49,4.14c-1,1.94-2.14,3.94-3.42,6s-2.49,4.08-3.63,6-2,3.32-2.56,4.15c-.86,1.39-1,2.07-.43,2.07a3.53,3.53,0,0,0,2.14-1.24q4.26-4.14,10.46-9.12a146.87,146.87,0,0,1,13-9.34,99.52,99.52,0,0,1,13.45-7.26,29.91,29.91,0,0,1,11.75-2.9,11.57,11.57,0,0,1,6.62,1.87C1192,472,1193,473.33,1193,474.71Z" transform="translate(-140.21 -273.48)"/><path class="cls-1" d="M1513.51,278.18Q1450,388.72,1397.1,500.41t-93.41,211.65q-8.28,20-11,36.45a185.93,185.93,0,0,0-2.77,30.57q0,22.35,10.13,38.8,4.59,3.54,1.84,8.82c-1.84,3.53-3.68,3.71-5.52.59q-15.66-25.87-26.69-42.92a66.76,66.76,0,0,1-11-37,140.88,140.88,0,0,1,10.12-51.73q12.87-34.1,34.51-81.13t46.93-97.6q25.3-50.53,52.46-101.12T1452.77,324a3.83,3.83,0,0,0,.92-2.36v-1.17a3.87,3.87,0,0,0-.92-2.35,3.58,3.58,0,0,0-3.68,2.35q-17.49,12.94-39.57,30.57t-46.47,37q-24.4,19.39-49.7,39.39t-49.23,38.8a29.37,29.37,0,0,1-2.76-8.23,62.12,62.12,0,0,1-.92-11.76q21.15-14.1,48.77-33.51t56.6-41.74q29-22.32,57.06-44.68t49.23-41.16q9.2-2.34,19.79-4.7a140.14,140.14,0,0,0,19.78-5.88Z" transform="translate(-140.21 -273.48)"/><path class="cls-1" d="M1841,378.12q0,38.81-10.59,85.84a694.75,694.75,0,0,1-29,95.24,681.49,681.49,0,0,1-43.71,92.89q-25.32,44.7-55.22,79.37t-63.5,55.85q-33.6,21.16-68.56,21.17a130.71,130.71,0,0,1-28.53-3.53,71.46,71.46,0,0,1-29-14.11q-13.36-10.58-22.55-30.57t-9.2-52.91q0-31.75,8.74-68.2a548.64,548.64,0,0,1,23.93-74.67,701.78,701.78,0,0,1,36.35-77,761.92,761.92,0,0,1,46-74.08q12-16.45,33.13-38.8t44.18-34.1q13.8-7.06,30.82-16.46t34-18.82q17-9.39,31.75-17.64a257.64,257.64,0,0,0,23-14.1c4.29.79,9.2,2.93,14.73,6.46s10.72,9.41,15.64,17.64,9,18.81,12.42,31.75S1841,358.54,1841,378.12Zm-40.5,28.22q0-36.42-8.74-65.25t-33.59-28.81q-6.45,0-20.25,4.11t-30.82,14.7q-17,10.59-36.36,28.22T1633,404q-31.29,44.7-51.53,87.6t-32.21,81.13q-12,38.24-16.11,69.38T1529,694.42q0,44.7,16.57,70t44.17,25.28q37.72,0,75-31.15t67.64-84.08q30.38-52.9,49.24-122.28T1800.45,406.34Z" transform="translate(-140.21 -273.48)"/><line class="cls-2" y1="326.68" x2="1130.82" y2="326.68"/><line class="cls-2" x1="103.28" y1="0.55" x2="103.28" y2="557.52"/><text class="cls-3" transform="translate(157.53 413.69)">BEAUTY CENTER</text></svg>